<svg version="1.0" xmlns="http://www.w3.org/2000/svg"
 width="48.000000pt" height="48.000000pt" viewBox="0 0 48.000000 48.000000"
 preserveAspectRatio="xMidYMid meet">

<g transform="translate(0.000000,48.000000) scale(0.100000,-0.100000)"
fill="#ebebeb" stroke="none">
<path d="M220 314 l0 -66 -60 4 c-52 3 -60 1 -60 -14 0 -15 10 -18 60 -18 l60
0 0 -60 c0 -53 2 -60 20 -60 18 0 20 7 20 60 l0 60 60 0 c47 0 60 3 60 15 0
12 -13 15 -60 15 l-60 0 0 65 c0 58 -2 65 -20 65 -18 0 -20 -7 -20 -66z"/>
</g>
</svg>