
<svg version="1.0" xmlns="http://www.w3.org/2000/svg"
 width="442px" height="345px" viewBox="0 0 714.000000 573.000000"
 preserveAspectRatio="xMidYMid meet">

<g transform="translate(0.000000,573.000000) scale(0.100000,-0.100000)"
fill="#000000" stroke="none">
    <path d="M2775 5724 c-123 -14 -214 -31 -302 -55 -414 -116 -760 -400 -955
    -786 l-62 -122 -115 109 c-64 60 -208 199 -320 309 -217 214 -273 256 -386
    285 -159 42 -315 -8 -462 -147 -186 -177 -220 -352 -109 -563 20 -38 55 -91
    78 -117 22 -27 336 -289 697 -582 634 -516 657 -536 690 -597 85 -158 198
    -302 338 -429 57 -52 176 -142 220 -168 7 -4 29 -72 48 -151 41 -166 85 -312
    125 -418 27 -68 28 -75 14 -107 -8 -19 -14 -51 -14 -71 0 -80 124 -377 225
    -540 53 -84 133 -162 202 -198 28 -14 91 -33 140 -43 49 -9 101 -26 117 -37
    17 -13 43 -53 67 -105 115 -247 326 -472 532 -566 86 -40 204 -66 319 -72 61
    -3 112 -11 116 -17 5 -6 19 -38 32 -71 13 -33 48 -109 79 -170 73 -143 167
    -244 250 -269 206 -61 413 58 451 259 14 73 9 130 -21 247 -24 94 -24 90 5 82
    13 -3 77 -11 141 -17 l117 -12 32 -80 c73 -180 166 -330 243 -387 63 -48 112
    -61 210 -56 127 6 218 55 278 149 56 87 67 189 36 329 -52 229 -160 469 -275
    605 -41 50 -75 92 -75 95 0 11 200 122 253 140 35 13 106 24 189 30 72 6 156
    15 185 21 93 18 182 72 291 174 80 75 112 97 151 109 80 24 177 29 290 15 58
    -7 130 -13 160 -14 l55 0 28 55 c100 201 60 462 -97 637 -42 47 -50 51 -103
    57 -111 13 -449 86 -633 136 -483 132 -997 332 -1588 621 l-244 118 51 51
    c107 107 165 262 164 440 0 92 -4 116 -33 200 -43 126 -73 183 -124 239 -39
    42 -44 52 -50 111 -23 232 -136 515 -293 729 -122 167 -348 358 -536 453 -244
    123 -579 189 -822 162z m365 -100 c291 -48 569 -192 785 -409 210 -209 348
    -466 402 -746 9 -48 15 -91 12 -94 -3 -2 -23 0 -45 6 -38 11 -143 8 -175 -5
    -13 -6 -20 10 -38 81 -153 606 -738 1097 -1369 1149 -46 4 -79 10 -75 15 14
    14 196 28 303 23 58 -2 148 -11 200 -20z m-353 -110 c571 -84 1069 -528 1218
    -1086 l23 -88 -31 -24 c-17 -14 -33 -24 -34 -22 -1 1 -16 55 -32 120 -111 439
    -472 823 -911 970 -363 121 -772 90 -1039 -81 -29 -19 -55 -32 -57 -30 -6 6
    99 87 181 139 106 68 153 89 230 103 99 18 327 18 452 -1z m-2102 -158 c65
    -32 155 -99 155 -114 0 -4 -36 -7 -81 -6 -85 0 -99 7 -99 52 0 12 -4 22 -10
    22 -17 0 -32 -42 -27 -75 5 -28 2 -34 -26 -47 -51 -25 -126 -97 -157 -152 -40
    -68 -42 -151 -6 -193 22 -25 31 -28 88 -28 34 0 77 4 93 9 l30 8 -30 -26 c-16
    -14 -71 -46 -121 -72 -152 -77 -251 -72 -331 20 -47 52 -77 138 -77 221 -1 60
    4 80 33 139 56 114 186 227 308 267 84 28 167 20 258 -25z m2031 -101 c100
    -18 211 -53 301 -96 60 -28 123 -73 123 -87 0 -4 -78 -6 -172 -4 -385 7 -694
    -69 -929 -229 -216 -146 -332 -431 -348 -849 l-6 -175 -32 50 c-167 262 -173
    506 -20 837 110 239 288 424 484 503 151 61 410 82 599 50z m-1841 -120 c17
    -7 57 -33 88 -59 32 -26 64 -45 71 -44 7 2 99 -79 203 -179 l190 -182 -23 -80
    c-71 -246 -71 -576 0 -822 22 -76 21 -94 -3 -65 -6 7 -252 208 -545 447 l-535
    434 65 16 c81 21 195 75 257 123 43 33 49 35 63 21 22 -21 34 -19 34 8 0 12
    12 57 27 100 43 120 19 139 -112 86 -91 -36 -149 -47 -160 -29 -27 44 52 153
    147 201 94 48 159 54 233 24z m2718 -628 c70 -30 137 -141 137 -227 0 -55 -30
    -128 -70 -168 -95 -99 -233 -71 -305 59 -38 69 -41 171 -8 234 25 46 67 90
    103 104 36 14 106 13 143 -2z m699 -211 c21 -8 50 -22 65 -32 l28 -19 -66 -6
    c-83 -9 -139 -37 -204 -103 -104 -107 -155 -250 -155 -436 0 -95 4 -127 24
    -183 26 -72 59 -123 110 -170 l31 -28 -35 7 c-161 30 -270 204 -270 431 0 334
    250 618 472 539z m116 -155 c51 -26 76 -55 109 -126 23 -50 28 -77 31 -161 6
    -160 -37 -290 -127 -388 -110 -117 -237 -120 -316 -7 -42 61 -58 117 -63 222
    -5 115 8 184 52 275 44 90 94 146 158 178 62 31 106 33 156 7z m-807 -191 c22
    -13 49 -61 49 -90 0 -33 -27 -78 -52 -86 -75 -25 -140 58 -108 136 20 47 66
    64 111 40z m213 -514 l19 -35 -49 -68 c-139 -197 -370 -366 -622 -457 -150
    -54 -260 -70 -467 -70 -297 0 -416 32 -615 165 -117 78 -131 99 -34 51 522
    -260 1158 -178 1543 200 71 70 191 220 191 239 0 20 16 7 34 -25z m115 -130
    c18 -13 46 -30 62 -36 16 -7 29 -16 29 -20 0 -19 -225 -222 -302 -274 -226
    -150 -481 -237 -733 -251 l-100 -5 110 24 c206 44 364 109 527 218 102 68 272
    231 328 315 19 29 38 53 41 53 3 0 20 -11 38 -24z m1088 -344 c282 -125 409
    -177 633 -259 351 -128 784 -247 1086 -298 l159 -27 39 -41 c51 -55 103 -166
    116 -249 10 -67 3 -150 -19 -223 -20 -68 -12 -69 -150 15 -401 244 -957 529
    -1531 785 -155 68 -205 96 -305 170 -181 132 -390 267 -558 361 -83 46 -155
    84 -159 84 -4 0 -8 3 -8 8 0 4 106 -45 235 -109 129 -64 337 -162 462 -217z
    m-537 143 c196 -110 569 -368 780 -539 87 -71 112 -82 319 -136 230 -60 290
    -101 312 -211 28 -142 -67 -241 -273 -286 -71 -15 -204 -14 -283 2 l-30 7 -11
    -71 c-12 -75 -35 -121 -59 -121 -21 0 -43 39 -86 152 -70 184 -123 249 -294
    363 -207 137 -467 249 -610 262 -54 5 -65 3 -65 -9 0 -14 54 -42 248 -128 39
    -18 72 -35 72 -39 -1 -26 -652 -233 -681 -216 -4 3 -17 36 -30 73 -50 153
    -108 221 -205 243 -51 12 -58 10 -216 -40 -342 -108 -566 -141 -910 -133
    l-107 2 -50 153 c-43 131 -69 224 -95 340 l-7 28 38 -19 c107 -54 306 -112
    452 -133 122 -17 411 -6 526 20 339 79 613 238 838 490 89 100 106 103 237 43
    52 -24 138 -68 190 -97z m-897 -739 c51 -22 83 -65 116 -154 35 -96 35 -92 19
    -92 -6 0 -31 -9 -54 -21 -120 -58 -108 -260 20 -326 19 -10 50 -14 100 -11
    l71 3 3 -40 c5 -59 -17 -123 -57 -165 -69 -72 -390 -156 -637 -167 l-132 -6
    -25 84 c-14 46 -34 116 -46 154 -29 98 -39 109 -131 140 -76 25 -80 28 -89 63
    -72 274 -91 350 -91 360 0 8 22 12 68 12 157 0 470 63 692 139 133 46 131 45
    173 27z m1088 -92 c86 -43 192 -115 183 -124 -22 -21 -405 -153 -594 -205
    -229 -63 -496 -110 -537 -94 -51 19 -80 117 -47 156 15 17 41 26 119 38 199
    33 453 109 685 206 63 26 121 48 128 48 7 1 35 -11 63 -25z m1503 -98 c197
    -102 462 -248 581 -320 l60 -36 -100 0 c-180 0 -260 -34 -387 -161 -119 -120
    -182 -147 -382 -160 -77 -5 -165 -15 -197 -24 -63 -16 -166 -64 -214 -100 -16
    -12 -49 -32 -72 -44 l-42 -21 -69 83 c-143 171 -295 386 -341 481 -12 24 -30
    73 -40 109 -11 36 -22 76 -26 88 -7 22 -7 23 10 9 34 -28 83 -115 114 -202 58
    -167 91 -208 166 -208 65 0 117 53 139 143 l6 27 109 0 c233 0 430 94 476 228
    17 51 20 148 5 186 -5 14 -7 26 -3 26 3 0 97 -47 207 -104z m-3598 16 c6 -4
    35 -101 65 -217 32 -124 60 -216 71 -227 9 -9 48 -26 86 -37 38 -12 75 -27 81
    -34 13 -16 83 -268 76 -275 -2 -3 -39 1 -82 7 -154 25 -243 88 -334 238 -100
    166 -205 423 -195 481 10 62 28 72 130 72 50 0 96 -4 102 -8z m2312 -224 c16
    -51 42 -118 57 -148 64 -128 264 -395 506 -678 73 -86 114 -145 153 -222 98
    -191 175 -453 161 -548 -21 -139 -129 -232 -270 -232 -120 0 -201 79 -306 295
    -76 155 -76 162 -20 182 84 29 169 97 158 127 -5 13 -13 12 -54 -8 -189 -95
    -504 -73 -711 49 -139 81 -287 239 -374 396 -31 57 -47 77 -58 72 -281 -117
    -577 -132 -842 -42 -80 26 -198 81 -198 91 0 5 32 8 71 8 206 0 592 97 682
    171 20 16 49 57 66 91 27 52 31 72 31 138 l0 77 49 7 c135 18 613 160 806 239
    33 14 61 26 62 26 1 1 15 -41 31 -91z m-1668 -822 c230 -94 551 -103 807 -21
    42 13 78 23 78 22 1 -1 28 -42 60 -91 106 -161 303 -335 443 -391 40 -16 43
    -21 63 -89 48 -161 53 -270 15 -344 -23 -45 -75 -93 -126 -116 -57 -26 -170
    -28 -216 -3 -63 33 -133 124 -199 261 -74 151 -85 186 -60 186 59 0 222 120
    209 155 -5 13 -9 12 -33 -4 -37 -27 -85 -45 -170 -66 -89 -22 -277 -16 -381
    11 -218 56 -420 221 -564 460 -38 63 -44 80 -23 71 6 -4 50 -22 97 -41z"/>
</g>
</svg>
