<svg version="1.0" xmlns="http://www.w3.org/2000/svg"
 width="32.000000pt" height="32.000000pt" viewBox="0 0 32.000000 32.000000"
 preserveAspectRatio="xMidYMid meet">

<g transform="translate(0.000000,32.000000) scale(0.100000,-0.100000)"
fill="#ebebeb" stroke="none">
<path d="M80 306 c0 -8 -11 -17 -25 -20 l-25 -6 0 -134 c0 -113 2 -135 16
-140 9 -3 60 -6 114 -6 71 0 101 4 109 14 8 9 11 55 9 137 -3 118 -4 125 -25
134 -13 5 -23 15 -23 22 0 18 -19 16 -26 -2 -4 -8 -12 -15 -19 -15 -7 0 -15 7
-19 15 -3 8 -10 15 -16 15 -5 0 -10 -7 -10 -15 0 -8 -9 -15 -20 -15 -11 0 -20
7 -20 15 0 8 -4 15 -10 15 -5 0 -10 -6 -10 -14z m90 -106 c0 -5 -20 -10 -45
-10 -25 0 -45 5 -45 10 0 6 20 10 45 10 25 0 45 -4 45 -10z m68 -52 c-3 -9
-28 -13 -78 -13 -50 0 -75 4 -77 13 -4 9 16 12 77 12 61 0 81 -3 78 -12z m0
-55 c3 -10 -17 -13 -77 -13 -75 0 -92 6 -74 24 12 12 146 2 151 -11z"/>
</g>
</svg>
