<svg version="1.0" xmlns="http://www.w3.org/2000/svg"
 width="48.000000pt" height="48.000000pt" viewBox="0 0 48.000000 48.000000"
 preserveAspectRatio="xMidYMid meet">

<g transform="translate(0.000000,48.000000) scale(0.100000,-0.100000)"
fill="#ebebeb" stroke="none">
<path d="M72 412 c-9 -7 -12 -49 -10 -178 l3 -169 88 -3 c73 -2 87 0 87 13 0
12 -14 15 -75 15 l-75 0 0 150 0 150 75 0 c60 0 75 3 75 15 0 12 -15 15 -77
15 -43 0 -84 -4 -91 -8z"/>
<path d="M316 311 c-3 -4 3 -16 14 -26 11 -10 20 -22 20 -27 0 -4 -36 -8 -80
-8 -64 0 -80 -3 -80 -15 0 -12 16 -15 82 -15 l81 0 -21 -23 c-17 -18 -19 -26
-10 -35 9 -9 22 -3 55 30 l43 42 -42 43 c-43 44 -53 49 -62 34z"/>
</g>
</svg>