<svg version="1.0" xmlns="http://www.w3.org/2000/svg"
 width="48.000000pt" height="48.000000pt" viewBox="0 0 48.000000 48.000000"
 preserveAspectRatio="xMidYMid meet">

<g transform="translate(0.000000,48.000000) scale(0.100000,-0.100000)"
fill="#000000" stroke="none">
<path d="M190 416 c0 -47 -37 -65 -90 -42 -12 5 -22 -5 -38 -33 l-22 -39 25
-20 c32 -25 32 -59 0 -84 l-25 -20 22 -39 c16 -28 26 -38 38 -33 53 23 90 5
90 -42 0 -22 4 -24 50 -24 46 0 50 2 50 24 0 47 37 65 90 42 10 -4 22 6 38 34
l22 39 -25 17 c-33 21 -33 60 0 86 l25 20 -22 39 c-16 28 -26 38 -38 33 -53
-23 -90 -5 -90 42 0 22 -4 24 -50 24 -46 0 -50 -2 -50 -24z m75 -36 c4 -16 12
-30 18 -30 6 0 18 -7 28 -16 14 -13 22 -13 39 -4 18 10 25 9 38 -4 14 -14 13
-17 -8 -34 -33 -26 -33 -78 -1 -104 22 -17 23 -20 9 -34 -12 -12 -20 -14 -36
-5 -29 15 -79 -15 -88 -51 -3 -18 -12 -28 -24 -28 -12 0 -21 10 -24 28 -9 36
-59 66 -88 51 -16 -9 -24 -8 -36 5 -14 14 -13 17 8 34 33 26 33 78 1 104 -22
17 -23 20 -9 34 12 12 20 14 36 5 29 -15 79 15 88 52 8 38 40 37 49 -3z"/>
<path d="M196 284 c-20 -20 -20 -68 0 -88 20 -20 68 -20 88 0 20 20 20 68 0
88 -8 9 -28 16 -44 16 -16 0 -36 -7 -44 -16z m69 -44 c0 -18 -6 -26 -23 -28
-13 -2 -25 3 -28 12 -10 26 4 48 28 44 17 -2 23 -10 23 -28z"/>
</g>
</svg>
