<svg version="1.0" xmlns="http://www.w3.org/2000/svg"
 width="48.000000pt" height="48.000000pt" viewBox="0 0 48.000000 48.000000"
 preserveAspectRatio="xMidYMid meet">

<g transform="translate(0.000000,48.000000) scale(0.100000,-0.100000)"
fill="#000000" stroke="none">
<path d="M186 433 c-38 -10 -96 -56 -119 -92 -33 -54 -31 -153 5 -208 41 -63
90 -88 169 -88 54 0 72 5 106 27 62 41 88 90 88 168 0 78 -24 123 -86 164 -41
28 -120 42 -163 29z m152 -56 c38 -26 72 -90 72 -137 0 -74 -58 -147 -132
-165 l-28 -7 0 172 0 172 28 -7 c15 -3 42 -16 60 -28z"/>
</g>
</svg>
